Coordinates
version=1
nRows=13
nColumns=36
inDegrees=yes

Units are S.I. units (second, meters, Newtons, ...)
If the header above contains a line with 'inDegrees', this indicates whether rotational values are in degrees (yes) or radians (no).

endheader
time	pelvis_tilt	pelvis_list	pelvis_rotation	pelvis_tx	pelvis_ty	pelvis_tz	hip_flexion_r	hip_adduction_r	hip_rotation_r	knee_angle_r	knee_angle_r_beta	ankle_angle_r	subtalar_angle_r	mtp_angle_r	hip_flexion_l	hip_adduction_l	hip_rotation_l	knee_angle_l	knee_angle_l_beta	ankle_angle_l	subtalar_angle_l	mtp_angle_l	lumbar_extension	lumbar_bending	lumbar_rotation	arm_flex_r	arm_add_r	arm_rot_r	elbow_flex_r	pro_sup_r	arm_flex_l	arm_add_l	arm_rot_l	elbow_flex_l	pro_sup_l
      4.80000000	    -29.28607176	    -12.49012612	     10.08511006	      1.14526253	      0.78470728	      0.06950956	     62.23390359	     10.94626707	     -7.72176610	     59.59477971	      1.04012512	     39.93518127	     -6.82899914	     -7.49999987	     85.60212973	     -8.94542561	     12.21168567	     40.25681107	      0.70261390	      3.27868929	    -23.03259797	     -7.49999987	      7.74414050	     20.89441162	      2.37964131	     55.24026234	     -4.93125108	     69.14613849	    127.71783629	    101.72542942	     42.29413377	      7.89695959	     62.07232864	    115.02888532	    109.17316441
      4.81666670	    -28.63352256	    -11.88831646	     10.65048369	      1.14523153	      0.79195506	      0.06942845	     60.93168344	     10.30569776	     -7.31753036	     58.67098848	      1.02400192	     39.36827109	     -6.49161368	     -7.49999987	     84.77561907	     -8.62264965	     11.92746654	     40.56456945	      0.70798530	      4.96935969	    -22.09171554	     -7.49999987	      7.13064200	     20.22179186	      1.99356872	     56.02253730	     -4.52081365	     69.59280497	    128.10379775	    101.93623656	     42.72449178	      7.66204987	     62.60378587	    114.89571000	    109.15462521
      4.83333330	    -27.72356874	    -11.32480044	     11.14030500	      1.14545116	      0.79705013	      0.06885885	     59.42357643	      9.71200078	     -7.22357215	     57.89147253	      1.01039680	     39.02690709	     -5.82357950	     -7.49999987	     84.06602716	     -8.32014392	     11.86441486	     41.07476053	      0.71688981	      6.16327281	    -21.60331297	     -7.49999987	      6.24037892	     19.75459816	      1.88816174	     56.67938220	     -4.54946132	     69.06278632	    128.36526599	     99.63324282	     43.50481516	      7.69756750	     62.24391734	    115.89480240	    106.18971298
      4.85000000	    -25.72618528	    -10.19206716	     12.00626723	      1.15060238	      0.81372308	      0.06581929	     56.04698102	      8.82038486	     -6.77953302	     56.17890007	      0.98050678	     38.25775710	     -5.55237525	     -7.49999987	     81.46225173	     -7.78000424	     11.28281736	     40.50387164	      0.70692592	      7.01691303	    -21.32876728	     -7.49999987	      3.94939088	     19.10500932	      0.95388485	     56.40159853	     -3.87618381	     69.03408282	    127.38563636	    102.71341422	     43.45715109	      7.00699913	     61.89775483	    117.30207588	    109.86264177
      4.86666670	    -23.93039734	     -9.11975350	     12.76748923	      1.14601163	      0.82367769	      0.06899115	     53.10308981	      8.05594702	     -6.37749444	     54.61371119	      0.95318908	     37.31876716	     -5.39117254	     -7.49999987	     79.17881391	     -7.35999608	     10.69806756	     40.00423912	      0.69820569	      7.35994640	    -20.77052900	     -7.49999987	      1.60751779	     18.03368201	      0.68513030	     57.31369976	     -3.13332833	     68.20988438	    126.96553643	    102.98872527	     44.12477028	      6.65941935	     61.35931987	    117.40666609	    109.56269561
      4.88333330	    -21.46472683	     -7.55681855	     13.57450092	      1.14682127	      0.84386372	      0.06908483	     48.88708183	      7.06238457	     -5.85649374	     52.39413294	      0.91445013	     36.37393737	     -5.18085025	     -7.49999987	     75.88174135	     -6.81300480	      9.73636345	     39.50460327	      0.68948540	      7.91230964	    -19.98737354	     -7.49999987	     -2.06561766	     16.67871747	      0.64173913	     57.56216238	     -2.92294740	     68.22621209	    126.00583271	    102.67047476	     44.03596056	      5.34806522	     62.17165519	    116.41669947	    109.77220815
      4.90000000	    -17.80971308	     -5.43245495	     14.26085593	      1.14200885	      0.85950530	      0.07179856	     43.35240627	      5.86316584	     -5.41301115	     50.00844517	      0.87281202	     35.12225370	     -4.57522020	     -7.49999987	     70.91806724	     -6.42060390	      8.25751095	     38.16993887	      0.66619111	      8.25280789	    -18.85514510	     -7.49999987	     -7.32731166	     15.01873330	      1.11246849	     58.36853702	     -3.00027938	     67.77922419	    125.50330507	    103.17414535	     44.91442545	      4.25039883	     63.20097941	    116.98792179	    109.54009900
      4.91666670	    -11.94305517	     -1.90809265	     14.96155832	      1.14683821	      0.88024233	      0.06964911	     34.83279063	      3.86154184	     -4.89307107	     47.14753848	      0.82287978	     34.14448788	     -3.54141782	     -7.49999987	     62.53932756	     -5.51234499	      6.12707846	     35.84264685	      0.62557220	      8.71601792	    -17.74025438	     -7.49999987	    -15.34814081	     12.72469628	      1.30076299	     59.79121463	     -2.76173102	     67.03079349	    125.30461132	    103.99798374	     46.20392612	      3.47693369	     63.42947918	    119.26501397	    109.83137028
      4.93333330	     -1.96858817	      5.02691153	     14.72282883	      1.15096000	      0.91209959	      0.07063711	     20.39368613	     -0.44627089	     -4.04510546	     43.09921603	      0.75222322	     33.34854009	     -1.59390024	     -7.49999987	     47.04713196	     -2.88192335	      2.73112969	     30.79395340	      0.53745588	      9.49595905	    -16.51972610	     -7.49999987	    -29.08078964	      7.80218903	      0.28644294	     62.51783789	     -1.50782132	     65.08217604	    125.34730402	    104.19955484	     49.47799284	      2.56929067	     63.12333653	    120.90009827	    109.71498579
      4.95000000	      8.30486876	     12.22581825	     12.39867785	      1.14940498	      0.94596929	      0.07954338	      5.48832967	     -5.16283236	     -3.29016520	     37.91067145	      0.66166604	     31.60057104	     -0.13147655	     -7.49999987	     30.55193052	      0.38207052	     -1.19726158	     23.69784859	      0.41360548	      9.12268337	    -14.46586533	     -7.49999987	    -42.11296265	      2.34940763	     -1.01191931	     64.52567178	     -1.05270393	     62.72025681	    124.48490465	    103.31773673	     52.78571337	      1.49565700	     62.68711580	    120.75387421	    108.34108352
      4.96666670	     12.24609975	     15.11725365	     10.52079091	      1.14954021	      0.96411356	      0.08409199	     -1.00103067	     -7.29813404	     -2.71434637	     33.97764784	      0.59302183	     29.69579604	      0.44099562	     -7.49999987	     23.79303445	      1.93407013	     -3.27569362	     19.70520228	      0.34392066	      9.10303075	    -12.20205070	     -7.49999987	    -46.24094584	     -0.21934711	     -1.11275236	     64.72264941	     -1.05970174	     62.09411667	    123.73934933	    103.22252833	     53.24192917	      1.19050295	     62.33630815	    121.00677044	    108.24018568
      4.98333330	     12.50079086	     15.59849243	     10.11303003	      1.14962112	      0.97175549	      0.08426683	     -2.59346272	     -7.88211165	     -2.91103665	     31.41215956	      0.54824561	     28.50927529	      1.73441802	     -7.49999987	     23.50411881	      2.56558711	     -3.12198640	     18.33535368	      0.32001229	     10.75274364	     -9.64377188	     -7.49999987	    -46.19967130	     -0.64790485	     -0.95223301	     64.17017017	     -1.10217005	     62.22729411	    123.32354324	    103.03024903	     52.70951479	      1.15065575	     61.91155321	    121.92942512	    108.11145080
      5.00000000	     13.81412026	     16.92868806	      9.39941319	      1.15459789	      0.98014305	      0.08226416	     -5.68337486	     -9.13965971	     -3.26886074	     28.66412483	      0.50028336	     27.25390651	      2.99597347	     -7.49999987	     21.83033368	      3.97568213	     -2.77655808	     16.08683068	      0.28076816	     13.02978437	     -6.62710634	     -7.49999987	    -47.09283251	     -1.87289137	     -1.57955648	     64.20173044	     -0.44690762	     61.41726543	    123.45143182	    103.01240643	     52.67355837	      1.19080191	     61.34341034	    122.61094950	    108.36816167
